<svg xmlns="http://www.w3.org/2000/svg" width="18" height="20" viewBox="0 0 18 20"><defs><clipPath id="xwhra"><path fill="#fff" d="M0 16V0h16v16zM1.881 2.517v10.138c0 .8.649 1.448 1.449 1.448h9.413c.8 0 1.448-.648 1.448-1.448V2.517c0-.8-.648-1.448-1.448-1.448H3.33c-.8 0-1.449.648-1.449 1.448z"/></clipPath><clipPath id="xwhrb"><path fill="#fff" d="M5 20V6h13v14zm6.272-10.935L8.787 11.55l.512.513 1.973-1.973v6.166h.724V10.09l1.973 1.973.512-.513-2.485-2.485v-.03h-.724z"/></clipPath></defs><g><g><path fill="#e66a5d" d="M3.33 1.069h9.413c.8 0 1.448.648 1.448 1.448v10.138c0 .8-.648 1.448-1.448 1.448H3.33c-.8 0-1.449-.648-1.449-1.448V2.517c0-.8.649-1.448 1.449-1.448z"/><path fill="none" stroke="#fff" stroke-linecap="round" stroke-linejoin="round" stroke-miterlimit="20" stroke-width="2" d="M3.33 1.069h9.413c.8 0 1.448.648 1.448 1.448v10.138c0 .8-.648 1.448-1.448 1.448H3.33c-.8 0-1.449-.648-1.449-1.448V2.517c0-.8.649-1.448 1.449-1.448z" clip-path="url(&quot;#xwhra&quot;)"/></g><g><path fill="#00b5f9" d="M11.272 9.034h.724v.031l2.485 2.485-.512.513-1.973-1.973v6.166h-.724V10.09L9.3 12.063l-.512-.513 2.485-2.485z"/><path fill="none" stroke="#444c63" stroke-linecap="round" stroke-linejoin="round" stroke-miterlimit="20" stroke-width="6" d="M11.272 9.034h.724v.031l2.485 2.485-.512.513-1.973-1.973v6.166h-.724V10.09L9.3 12.063l-.512-.513 2.485-2.485z" clip-path="url(&quot;#xwhrb&quot;)"/></g></g></svg>