<svg xmlns="http://www.w3.org/2000/svg" width="16" height="16" viewBox="0 0 16 16"><defs><clipPath id="cpeaa"><path fill="#fff" d="M0 16V0h16v16zm1.157-8.276a6.517 6.517 0 1 0 13.034 0 6.517 6.517 0 0 0-13.034 0z"/></clipPath></defs><g><g><path fill="#e66a5d" d="M7.674 1.207a6.517 6.517 0 1 1 0 13.034 6.517 6.517 0 0 1 0-13.034z"/><path fill="none" stroke="#fff" stroke-linecap="round" stroke-linejoin="round" stroke-miterlimit="20" stroke-width="2" d="M7.674 1.207a6.517 6.517 0 1 1 0 13.034 6.517 6.517 0 0 1 0-13.034z" clip-path="url(&quot;#cpeaa&quot;)"/></g><g><path fill="#00b5f9" d="M6.928 4.103h.724v4.334h4.333v.724H7.652v.011h-.724v-.011h-.012v-.724h.012z"/></g></g></svg>