<svg xmlns="http://www.w3.org/2000/svg" width="16" height="9" viewBox="0 0 16 9"><defs><clipPath id="ksmea"><path fill="#fff" d="M2.605 2.69h10.138c.8 0 1.448.648 1.448 1.448v1.448c0 .8-.648 1.448-1.448 1.448H2.605c-.8 0-1.448-.648-1.448-1.448V4.138c0-.8.649-1.448 1.448-1.448z"/></clipPath><clipPath id="ksmeb"><path fill="#fff" d="M5.386 2.69h4.576c.361 0 .654.648.654 1.448v1.448c0 .8-.293 1.448-.654 1.448H5.386c-.36 0-.653-.648-.653-1.448V4.138c0-.8.292-1.448.653-1.448z"/></clipPath></defs><g><g><path fill="#e66a5d" d="M2.605 2.69h10.138c.8 0 1.448.648 1.448 1.448v1.448c0 .8-.648 1.448-1.448 1.448H2.605c-.8 0-1.448-.648-1.448-1.448V4.138c0-.8.649-1.448 1.448-1.448z"/><path fill="none" stroke="#fff" stroke-linecap="round" stroke-linejoin="round" stroke-miterlimit="20" stroke-width="2" d="M2.605 2.69h10.138c.8 0 1.448.648 1.448 1.448v1.448c0 .8-.648 1.448-1.448 1.448H2.605c-.8 0-1.448-.648-1.448-1.448V4.138c0-.8.649-1.448 1.448-1.448z" clip-path="url(&quot;#ksmea&quot;)"/></g><g><path fill="#e66a5d" d="M5.386 2.69h4.576c.361 0 .654.648.654 1.448v1.448c0 .8-.293 1.448-.654 1.448H5.386c-.36 0-.653-.648-.653-1.448V4.138c0-.8.292-1.448.653-1.448z"/><path fill="none" stroke="#00b5f9" stroke-linecap="round" stroke-linejoin="round" stroke-miterlimit="20" stroke-width="4" d="M5.386 2.69h4.576c.361 0 .654.648.654 1.448v1.448c0 .8-.293 1.448-.654 1.448H5.386c-.36 0-.653-.648-.653-1.448V4.138c0-.8.292-1.448.653-1.448z" clip-path="url(&quot;#ksmeb&quot;)"/></g></g></svg>