<svg xmlns="http://www.w3.org/2000/svg" width="15" height="15" viewBox="0 0 15 15"><defs><clipPath id="xbn8a"><path fill="#fff" d="M0 15V0h15v15zm1.859-1.517h11.586V1.173H1.859z"/></clipPath><clipPath id="xbn8b"><path fill="#fff" d="M2 12V4h11v8zm9.928-1.188c-1.312-2.964-2.873-2.421-2.873-2.421l-2.06-3.168-3.96 5.657z"/></clipPath><clipPath id="xbn8c"><path fill="#fff" d="M2 12V1h11v11zm1.307-1.414h8.69V2.621h-8.69z"/></clipPath></defs><g><g><path fill="#364760" d="M1.859 1.172h11.586v12.31H1.859z"/><path fill="none" stroke="#fff" stroke-linecap="round" stroke-linejoin="round" stroke-miterlimit="20" stroke-width="2" d="M1.859 1.172v0h11.586v12.31H1.859v0z" clip-path="url(&quot;#xbn8a&quot;)"/></g><g><path fill="#e66a5d" d="M3.035 10.88l3.96-5.657 2.06 3.168s1.561-.543 2.873 2.421z"/><path fill="none" stroke="#00b5f9" stroke-linecap="round" stroke-linejoin="round" stroke-miterlimit="20" stroke-width="2" d="M3.035 10.88v0l3.96-5.657v0l2.06 3.168v0s1.561-.543 2.873 2.421z" clip-path="url(&quot;#xbn8b&quot;)"/></g><g><path fill="#364760" d="M3.307 2.62h8.69v7.966h-8.69z"/><path fill="none" stroke="#fff" stroke-linecap="round" stroke-linejoin="round" stroke-miterlimit="20" stroke-width="2" d="M3.307 2.62v0h8.69v7.966h-8.69v0z" clip-path="url(&quot;#xbn8c&quot;)"/></g></g></svg>