<svg xmlns="http://www.w3.org/2000/svg" width="16" height="21" viewBox="0 0 16 21"><defs><clipPath id="wpiea"><path fill="#fff" d="M0 19V3h16v16zm1.157-8.448a6.517 6.517 0 1 0 13.035 0 6.517 6.517 0 0 0-13.035 0z"/></clipPath><clipPath id="wpieb"><path fill="#fff" d="M3 21V0h9v21zM5.48 4.759a2.172 2.172 0 1 0 4.344 0 2.172 2.172 0 0 0-4.345 0zm0 11.586a2.172 2.172 0 1 0 4.344 0 2.172 2.172 0 0 0-4.345 0z"/></clipPath></defs><g><g><path fill="#e66a5d" d="M7.674 4.034a6.517 6.517 0 1 1 0 13.035 6.517 6.517 0 0 1 0-13.035z"/><path fill="none" stroke="#fff" stroke-linecap="round" stroke-linejoin="round" stroke-miterlimit="20" stroke-width="2" d="M7.674 4.034a6.517 6.517 0 1 1 0 13.035 6.517 6.517 0 0 1 0-13.035z" clip-path="url(&quot;#wpiea&quot;)"/></g><g><path fill="#00b5f9" d="M7.652 2.586a2.172 2.172 0 1 1 0 4.345 2.172 2.172 0 0 1 0-4.345zm0 11.586a2.172 2.172 0 1 1 0 4.345 2.172 2.172 0 0 1 0-4.345z"/><path fill="none" stroke="#444c63" stroke-linecap="round" stroke-linejoin="round" stroke-miterlimit="20" stroke-width="4" d="M7.652 2.586a2.172 2.172 0 1 1 0 4.345 2.172 2.172 0 0 1 0-4.345zm0 11.586a2.172 2.172 0 1 1 0 4.345 2.172 2.172 0 0 1 0-4.345z" clip-path="url(&quot;#wpieb&quot;)"/></g></g></svg>